<svg width="44" height="33" viewBox="0 0 44 33" fill="none" xmlns="http://www.w3.org/2000/svg">
    <path
        d="M12.4646 12.2952C12.4646 11.326 12.2076 10.6349 11.6935 10.222C11.1878 9.80901 10.4757 9.60253 9.55705 9.60253H5.92891V15.089H9.55705C10.4757 15.089 11.1878 14.8656 11.6935 14.419C12.2076 13.9723 12.4646 13.2644 12.4646 12.2952ZM16.3203 12.2699C16.3203 14.4695 15.7641 16.0245 14.6516 16.9347C13.5392 17.8449 11.9505 18.3 9.88573 18.3H5.92891V25H2.06058V6.36628H10.1765C12.0474 6.36628 13.5392 6.84666 14.6516 7.80742C15.7641 8.76818 16.3203 10.2557 16.3203 12.2699ZM24.2264 9.57725H20.5729V6.25251H24.2264V9.57725ZM20.5729 11.2207H24.2264V25H20.5729V11.2207ZM30.0466 6.39156H43.257V9.66574H33.9149V13.9512H42.094V17.1875H33.9149V25H30.0466V6.39156Z"
        fill="url(#paint0_linear_380_6536)" />
    <circle cx="22.5" cy="7.5" r="3.5" fill="url(#paint1_linear_380_6536)" />
    <g clip-path="url(#clip0_380_6536)">
        <path
            d="M20.6667 5H24.3334V5.16667C24.3337 5.42764 24.2781 5.68566 24.1704 5.92335C24.0626 6.16105 23.9052 6.3729 23.7087 6.54467L24.3647 7.85467L22.6667 9.89067V7.998H22.3334V9.89067L20.6357 7.85467L21.2914 6.54467C21.0949 6.3729 20.9375 6.16105 20.8298 5.92335C20.722 5.68566 20.6664 5.42764 20.6667 5.16667V5Z"
            fill="#1E1E1E" />
    </g>
    <defs>
        <linearGradient id="paint0_linear_380_6536" x1="21" y1="0" x2="21" y2="33"
            gradientUnits="userSpaceOnUse">
            <stop stop-color="white" />
            <stop offset="1" stop-color="#686868" stop-opacity="0.39" />
        </linearGradient>
        <linearGradient id="paint1_linear_380_6536" x1="22.5" y1="4" x2="22.5" y2="11"
            gradientUnits="userSpaceOnUse">
            <stop stop-color="white" />
            <stop offset="1" stop-color="#909090" stop-opacity="0.94" />
        </linearGradient>
        <clipPath id="clip0_380_6536">
            <rect width="5" height="5" fill="white" transform="translate(20 5)" />
        </clipPath>
    </defs>
</svg>
    