<svg width="600" height="600" viewBox="0 0 600 600" fill="none" xmlns="http://www.w3.org/2000/svg">
    <path
        d="M438.058 313.841C444.24 314.46 449.799 309.948 449.954 303.737C450.771 270.98 440.833 238.736 421.495 212.029C399.951 182.274 368.236 161.46 332.366 153.534C296.495 145.607 258.963 151.12 226.887 169.026C194.81 186.932 170.42 215.986 158.341 250.679C146.262 285.372 147.334 323.292 161.355 357.247C175.375 391.202 201.368 418.832 234.405 434.897C267.442 450.961 305.225 454.344 340.591 444.403C372.334 435.481 400.147 416.381 419.85 390.199C423.587 385.235 422.032 378.246 416.802 374.892C411.572 371.539 404.651 373.096 400.849 378.011C384.169 399.576 360.939 415.312 334.502 422.743C304.442 431.192 272.326 428.317 244.244 414.662C216.163 401.007 194.069 377.522 182.151 348.66C170.234 319.798 169.323 287.566 179.59 258.077C189.857 228.588 210.589 203.892 237.854 188.672C265.119 173.452 297.021 168.766 327.511 175.504C358.001 182.241 384.958 199.933 403.271 225.225C419.376 247.467 427.811 274.227 427.492 301.489C427.419 307.702 431.876 313.221 438.058 313.841Z"
        fill="#E8CD4F" fill-opacity="0.1" />
    <path
        d="M434.406 466.204C438.313 471.035 445.418 471.805 450.048 467.662C489.471 432.383 515.299 384.235 522.767 331.619C530.764 275.281 517.117 218.006 484.576 171.327C452.035 124.648 403.016 92.0325 347.39 80.0477C291.764 68.0629 233.663 77.5993 184.787 106.737C135.911 135.874 99.8901 182.448 83.9776 237.08C68.0651 291.712 73.4432 350.344 99.0288 401.169C124.614 451.995 168.507 491.238 221.868 510.998C271.705 529.452 326.342 529.631 376.126 511.73C381.972 509.628 384.674 503.012 382.283 497.278C379.891 491.543 373.311 488.866 367.453 490.935C322.933 506.664 274.181 506.376 229.682 489.898C181.657 472.115 142.153 436.795 119.126 391.052C96.0989 345.309 91.2586 292.54 105.58 243.372C119.901 194.203 152.32 152.286 196.309 126.063C240.297 99.8394 292.588 91.2566 342.651 102.043C392.714 112.829 436.831 142.183 466.118 184.195C495.405 226.206 507.687 277.753 500.491 328.457C493.822 375.438 470.89 418.461 435.88 450.143C431.273 454.312 430.5 461.373 434.406 466.204Z"
        fill="#E8CD4F" fill-opacity="0.1" />
    <path
        d="M406.723 564.263C409.825 571.944 418.586 575.691 426.103 572.209C490.108 542.561 541.783 491.21 571.784 427.017C603.906 358.283 608.793 279.931 585.461 207.739C562.128 135.546 512.308 74.8752 446.034 37.9433C379.76 1.01148 301.955 -9.43819 228.285 8.69859C154.615 26.8354 90.553 72.2114 48.999 135.689C7.445 199.167 -8.51446 276.032 4.33437 350.806C17.1832 425.58 57.8859 492.708 118.246 538.673C174.619 581.602 244.228 603.094 314.681 599.64C322.955 599.234 328.976 591.849 328.158 583.605C327.339 575.361 319.99 569.386 311.714 569.745C248.818 572.479 186.757 553.138 136.422 514.806C82.0974 473.437 45.4649 413.022 33.901 345.725C22.337 278.429 36.7005 209.251 74.0991 152.12C111.498 94.9903 169.154 54.1518 235.456 37.8287C301.759 21.5056 371.784 30.9103 431.431 64.149C491.078 97.3877 535.915 151.991 556.915 216.965C577.914 281.938 573.516 352.455 544.606 414.315C517.818 471.634 471.829 517.576 414.853 544.354C407.355 547.877 403.621 556.581 406.723 564.263Z"
        fill="#E8CD4F" fill-opacity="0.1" />
</svg>
    